<?xml version="1.0" encoding="UTF-8"?>
<svg id="Layer_2" xmlns="http://www.w3.org/2000/svg" viewBox="0 0 274.64 260.52">
  <defs>
    <style>
      .cls-1 {
        fill: none;
        stroke: #a6a6a6;
        stroke-miterlimit: 10;
        stroke-width: 2px;
      }
    </style>
  </defs>
  <g id="Layer_1-2" data-name="Layer_1">
    <path class="cls-1" d="M272.38,130.26c-46.89,23.11-56.75,44.04-39.55,90.64-49.11-16.32-71.15-6.94-95.51,37.54-24.35-44.49-46.4-53.85-95.51-37.54,17.2-46.61,7.32-67.53-39.55-90.64,46.89-23.11,56.75-44.03,39.55-90.64,49.11,16.32,71.15,6.94,95.51-37.54,24.35,44.49,46.4,53.85,95.51,37.54-17.2,46.61-7.32,67.53,39.55,90.64h0Z"/>
    <path class="cls-1" d="M234.87,130.26c-33.87,16.69-41,31.81-28.57,65.47-35.47-11.78-51.4-5.02-68.99,27.12-17.59-32.14-33.52-38.91-68.99-27.12,12.41-33.67,5.29-48.77-28.57-65.47,33.87-16.69,41-31.8,28.57-65.47,35.48,11.78,51.4,5.02,68.99-27.12,17.59,32.14,33.52,38.91,68.99,27.12-12.41,33.67-5.29,48.77,28.57,65.47Z"/>
    <path class="cls-1" d="M196.85,130.26c-20.66,10.19-25.01,19.41-17.44,39.95-21.64-7.19-31.37-3.06-42.09,16.55-10.74-19.61-20.45-23.74-42.09-16.55,7.58-20.54,3.22-29.77-17.43-39.95,20.66-10.19,25.01-19.41,17.43-39.95,21.64,7.19,31.37,3.06,42.09-16.55,10.74,19.61,20.45,23.74,42.09,16.55-7.57,20.54-3.22,29.77,17.44,39.95Z"/>
    <path class="cls-1" d="M166.62,130.26c-10.18,5.02-12.31,9.55-8.59,19.67-10.66-3.54-15.44-1.51-20.72,8.15-5.29-9.66-10.07-11.68-20.72-8.15,3.73-10.11,1.59-14.65-8.58-19.67,10.18-5.02,12.31-9.55,8.58-19.67,10.66,3.54,15.44,1.51,20.72-8.14,5.29,9.66,10.07,11.68,20.72,8.14-3.73,10.11-1.58,14.65,8.59,19.67Z"/>
    <path class="cls-1" d="M136.75,1.82v255.64"/>
    <path class="cls-1" d="M41.81,39.62l191.02,181.27"/>
    <path class="cls-1" d="M2.06,129.65h269.39"/>
    <path class="cls-1" d="M41.81,220.9L232.82,39.62"/>
  </g>
</svg>