<svg width="41" height="42" viewBox="0 0 41 42" fill="none" xmlns="http://www.w3.org/2000/svg">
<ellipse cx="20.1923" cy="21" rx="20.1923" ry="21" fill="#FFCBDF" fill-opacity="0.75"/>
<path d="M18.5206 17.8982C18.5206 17.8982 17.6395 8.66584 7.67116 6.3752C7.67116 6.3752 9.03313 8.85788 7.43529 11.6167C7.43529 11.6167 10.1458 13.1944 9.20451 16.3222C9.20451 16.3222 11.9539 17.7845 11.0715 20.5405C11.0715 20.5405 15.4771 22.3028 13.5929 26.8334L15.0535 27.9511" fill="#282A36"/>
<path d="M21.6361 20.2824C21.6361 20.2824 30.0258 18.1444 35.311 27.5267C35.311 27.5267 32.6853 26.9578 30.7898 29.4889C30.7898 29.4889 28.515 27.2515 26.08 29.2363C26.08 29.2363 23.8937 26.9214 21.7657 28.7241C21.7657 28.7241 18.7718 24.824 15.416 28.2284L13.9554 27.1107" fill="#282A36"/>
<path d="M18.2303 21.8872C19.4692 22.8353 21.2224 22.4699 22.1462 21.0709C23.07 19.672 22.8146 17.7694 21.5757 16.8213C20.3367 15.8732 18.5835 16.2387 17.6597 17.6376C16.7359 19.0365 16.9914 20.9391 18.2303 21.8872Z" fill="#282A36"/>
<path d="M19.1224 16.9933C19.1224 16.9933 19.0936 15.1303 21.1536 13.751C21.1536 13.751 20.3947 16.2572 21.0381 17.3842C21.4456 18.0989 20.6558 16.8481 20.6558 16.8481L19.121 16.9923L19.1224 16.9933Z" fill="#282A36"/>
<path d="M22.2309 19.3722C22.2309 19.3722 23.8749 18.7894 24.4081 16.2417C24.4081 16.2417 22.4587 17.8368 21.2584 17.553C20.4975 17.3735 21.8544 17.7655 21.8544 17.7655L22.2323 19.3733L22.2309 19.3722Z" fill="#282A36"/>
<path d="M16.7889 19.6788C16.8159 19.861 15.1218 25.8721 15.1218 25.8721L20.6416 22.6271L16.7889 19.6788Z" fill="#282A36"/>
<path d="M20.0977 18.1894C19.9333 18.4383 19.6216 18.502 19.4025 18.3343C19.1834 18.1667 19.1378 17.8273 19.3012 17.5799C19.4646 17.3325 19.7773 17.2674 19.9964 17.435C20.2155 17.6027 20.261 17.942 20.0977 18.1894Z" fill="#282A36"/>
<path d="M21.6588 19.3841C21.4944 19.633 21.1827 19.6967 20.9637 19.529C20.7446 19.3614 20.699 19.022 20.8624 18.7746C21.0257 18.5272 21.3384 18.4621 21.5575 18.6297C21.7766 18.7974 21.8222 19.1367 21.6588 19.3841Z" fill="#282A36"/>
</svg>
