<svg width="37" height="37" viewBox="0 0 37 37" fill="none" xmlns="http://www.w3.org/2000/svg">
<path d="M14.2605 33.9166L13.6438 28.9833C13.3098 28.8548 12.9951 28.7006 12.6996 28.5208C12.4041 28.3409 12.115 28.1482 11.8324 27.9426L7.24593 29.8697L3.00635 22.5468L6.97614 19.5405C6.95045 19.3607 6.9376 19.1872 6.9376 19.0202V17.9796C6.9376 17.8126 6.95045 17.6392 6.97614 17.4593L3.00635 14.453L7.24593 7.13013L11.8324 9.05721C12.115 8.85166 12.4105 8.65895 12.7188 8.47909C13.0272 8.29922 13.3355 8.14506 13.6438 8.01659L14.2605 3.08325H22.7397L23.3563 8.01659C23.6904 8.14506 24.0051 8.29922 24.3006 8.47909C24.5961 8.65895 24.8852 8.85166 25.1678 9.05721L29.7543 7.13013L33.9939 14.453L30.0241 17.4593C30.0498 17.6392 30.0626 17.8126 30.0626 17.9796V19.0202C30.0626 19.1872 30.0369 19.3607 29.9855 19.5405L33.9553 22.5468L29.7157 29.8697L25.1678 27.9426C24.8852 28.1482 24.5897 28.3409 24.2813 28.5208C23.973 28.7006 23.6647 28.8548 23.3563 28.9833L22.7397 33.9166H14.2605ZM16.9584 30.8333H20.0032L20.5428 26.7478C21.3393 26.5423 22.0781 26.2404 22.759 25.8421C23.4399 25.4438 24.0629 24.9621 24.6282 24.3968L28.4438 25.977L29.947 23.3562L26.6324 20.851C26.7609 20.4912 26.8508 20.1122 26.9022 19.714C26.9536 19.3157 26.9793 18.911 26.9793 18.4999C26.9793 18.0888 26.9536 17.6841 26.9022 17.2859C26.8508 16.8876 26.7609 16.5086 26.6324 16.1489L29.947 13.6437L28.4438 11.0228L24.6282 12.6416C24.0629 12.0506 23.4399 11.556 22.759 11.1577C22.0781 10.7595 21.3393 10.4576 20.5428 10.252L20.0418 6.16659H16.997L16.4574 10.252C15.6609 10.4576 14.9221 10.7595 14.2412 11.1577C13.5603 11.556 12.9373 12.0378 12.372 12.603L8.55635 11.0228L7.05322 13.6437L10.3678 16.1103C10.2393 16.4958 10.1494 16.8812 10.098 17.2666C10.0466 17.652 10.0209 18.0631 10.0209 18.4999C10.0209 18.911 10.0466 19.3093 10.098 19.6947C10.1494 20.0801 10.2393 20.4655 10.3678 20.851L7.05322 23.3562L8.55635 25.977L12.372 24.3583C12.9373 24.9492 13.5603 25.4438 14.2412 25.8421C14.9221 26.2404 15.6609 26.5423 16.4574 26.7478L16.9584 30.8333ZM18.5772 23.8958C20.0675 23.8958 21.3393 23.369 22.3928 22.3155C23.4463 21.2621 23.973 19.9902 23.973 18.4999C23.973 17.0096 23.4463 15.7378 22.3928 14.6843C21.3393 13.6308 20.0675 13.1041 18.5772 13.1041C17.0612 13.1041 15.7829 13.6308 14.7423 14.6843C13.7017 15.7378 13.1813 17.0096 13.1813 18.4999C13.1813 19.9902 13.7017 21.2621 14.7423 22.3155C15.7829 23.369 17.0612 23.8958 18.5772 23.8958Z" fill="#C9A3B5"/>
</svg>
