<?xml version="1.0" encoding="UTF-8"?>
<svg id="Layer_1" xmlns="http://www.w3.org/2000/svg" viewBox="0 0 396.82 417.31">
  <defs>
    <style>
      .cls-1, .cls-2, .cls-3, .cls-4, .cls-5, .cls-6, .cls-7, .cls-8, .cls-9 {
        isolation: isolate;
      }

      .cls-1, .cls-4, .cls-7 {
        fill: #6c7996;
      }

      .cls-1, .cls-6 {
        opacity: .7;
      }

      .cls-10 {
        fill: #cacaca;
      }

      .cls-2 {
        opacity: .3;
      }

      .cls-2, .cls-6, .cls-8 {
        fill: #b2668c;
      }

      .cls-3 {
        fill: #c9a3b5;
        opacity: .11;
      }

      .cls-11 {
        fill: #606060;
      }

      .cls-12 {
        fill: none;
      }

      .cls-13 {
        fill: #f7f7f7;
      }

      .cls-13, .cls-14, .cls-15, .cls-16 {
        stroke: #606060;
        stroke-miterlimit: 10;
      }

      .cls-13, .cls-15 {
        stroke-width: .25px;
      }

      .cls-4 {
        opacity: .9;
      }

      .cls-5, .cls-16 {
        fill: #ffcbdf;
      }

      .cls-5, .cls-8, .cls-9 {
        opacity: .5;
      }

      .cls-14 {
        fill: #c4daf9;
      }

      .cls-14, .cls-16 {
        stroke-width: .5px;
      }

      .cls-7 {
        opacity: .6;
      }

      .cls-15, .cls-17 {
        fill: #f5afc9;
      }

      .cls-18 {
        fill: #e7e7e7;
      }

      .cls-9 {
        fill: #ede7f3;
      }
    </style>
  </defs>
  <ellipse class="cls-3" cx="198.41" cy="208.65" rx="198.41" ry="208.65"/>
  <g>
    <g>
      <g>
        <g>
          <path class="cls-16" d="M146.23,350.26c-16.18,34.81,17.24,32.82,33.62,24.24,4.05-6.81,6.29-18.05,5.65-25.21"/>
          <path class="cls-17" d="M184.03,359.61c-.58,9.7-13.26,10.02-22.93,9.5-10.56,2.99-21.74,5.65-17.47-8.57"/>
          <path class="cls-6" d="M184.92,354.82c-.58,9.7-13.26,10.02-22.93,9.5-10.56,2.99-21.74,5.65-17.47-8.57"/>
        </g>
        <g>
          <path class="cls-14" d="M141.7,319.28s-2.92,40.01-1.16,42.64,50.73-2.99,52.4-2.63c1.67.39,7.77-33.01,7.77-33.01"/>
          <path class="cls-1" d="M141.51,332.44c2.67,10.24,15.22,19.07,21.77,10.76-.51-9.76,7.13-13,16.38-8.86,10.85,5.3,11.4.9,16.5,7.77,1.19-2.7,2.7-10.11,2.09-14.64-.96-9.99-62.62-15.73-56.32-3.85"/>
          <path class="cls-4" d="M140.52,323.42c13.07,25.82,18.69,2.44,31.44,2.06,12.23.13,31.85,22.09,28.39-8.12-.16-8.32-63.29-15.99-56.87-3.89"/>
        </g>
        <g>
          <path class="cls-16" d="M271.27,343.84c16.18,34.81-17.24,32.82-33.62,24.24-4.05-6.81-6.29-18.05-5.65-25.21"/>
          <path class="cls-17" d="M233.44,353.18c.58,9.7,13.26,10.02,22.93,9.5,10.56,2.99,21.74,5.65,17.47-8.57"/>
          <path class="cls-6" d="M232.54,348.4c.58,9.7,13.26,10.02,22.93,9.5,10.56,2.99,21.74,5.65,17.47-8.57"/>
        </g>
        <g>
          <path class="cls-14" d="M271.01,310.67s7.35,39.34,5.97,42.16c-1.38,2.83-48.42,2.83-49.96,3.37s-11.17-31.85-11.17-31.85"/>
          <path class="cls-1" d="M219.06,335.07c1.28,15.64,29.25,13.71,38.02,3.56,1.86-3.24,4.43-10.5,8.48-13.87,3.24-2.57,6.1-4.88,6-8.7"/>
          <path class="cls-4" d="M217.45,336c3.24,15.28,30.73,9.92,38.18-1.19,1.44-3.44,3.08-10.92,6.71-14.77,2.92-2.92,5.43-5.56,4.88-9.34"/>
        </g>
        <g>
          <path class="cls-13" d="M261.32,65.09c-23.83-47.52-106.61-54.88-129.69,17.73-4.33,36.32-27.65,173.59-26.07,164.79,1.09,21.96-15.7,70.8-23.47,84.58,14.48-27.87,47.2-8.99,70.39-2.18,11.4-1.32,14.32-18.43,45.95,2.25,41.81,27.33,68.43-18.3,83.65-19.04,15.22-.74,26.62-3.79,18.24,11.4-8.35,15.22,24.34-11.4,24.34-11.4l-63.26-248.12h-.06Z"/>
          <path class="cls-10" d="M165.85,322.36c-15.03-51.7-6.33-98.1,4.53-143.44-2.38,29.03-61.2,144.24-15.03,147.8"/>
          <path class="cls-18" d="M164.53,325.31c-12.49-44.83-6.81-81.59.45-120.93-6.71,27-47.72,125.81-9.92,125.01"/>
          <path class="cls-10" d="M200.43,332.6c-7.03-12.65,13.1-52.63,14.39-98.58,2.18-28.87-.83-49.71,1.51-49.93,16.86,35.13,14.39,122.15,34.04,134.06,24.6,19.14-37.99,28.48-49.93,14.48v-.03Z"/>
          <path class="cls-10" d="M303.86,313.66c-4.72-1.48-6.17-11.11-3.56-13.52,5.59-10.37-18.5-81.11-19.62-80.76.16,3.66,24.02,63.74,26.49,68.94,17.73,23.44,11.24,33.94-6.87,39.11-.22-.35,13.04-9.38,13-9.38-7.71,2.09-9.54,1.38-14,10.72"/>
          <path class="cls-10" d="M128.02,137.59c-8.7,17.4-17.28,84.71-17.4,80.57-8.7,42.74-2.63,59.92-2.18,96.81-8.41-3.89-18.72,4.56-20.74,9.28-.67-.29,1.41-7.9,15.19-43.73"/>
          <path class="cls-18" d="M204,332.54c-4.17-5.3-1.22-10.76,3.95-36.32,3.6-18.72,9.44-66.95,12.56-101.44,13.1,39.66,10.82,110.72,27.62,123.43,21.93,18.53-32.85,28.74-44.12,14.32Z"/>
          <path class="cls-18" d="M305.4,312.66c-3.92-1.54-4.46-10.76-2.47-12.49,4.85-10.69-11.08-61.14-11.05-61.17,3.08,9.06,16.95,49.48,16.99,49.29,14.1,30.67,11.98,23.02-7.8,39.66"/>
          <path class="cls-18" d="M124.4,170.57c-11.27,40.52-18.46,96.2-14.96,146.14-19.81-1.7-27.23,20.97-5.33-28.29"/>
        </g>
      </g>
      <g>
        <path class="cls-5" d="M185.57,140.45c.55,2.31-1.61,5.46-4.17,6.9-3.28,1.83-6.07.29-8.48,2.73-.96.96-.61,1.32-1.64,2.73-2.63,3.69-7.22,4.66-8.51,4.91-1.8.39-6.9,1.44-10.34-1.38-1.93-1.57-1.64-2.99-3.28-6-3.56-6.61-8.35-6.52-9.22-9.89-1.64-6.52,12.91-20,22.83-17.28,6.23,1.7,6,8.54,16.18,12.97,3.08,1.35,6.1,2.02,6.65,4.3h-.03Z"/>
        <rect class="cls-2" x="149.99" y="143.73" width="15.32" height=".96" transform="translate(-33.89 238.87) rotate(-68.75)"/>
        <rect class="cls-2" x="147.66" y="140.82" width="12.65" height="1.16" transform="translate(-40.65 217.72) rotate(-63.97)"/>
        <rect class="cls-2" x="155.36" y="142.53" width="12.65" height="1.16" transform="translate(-22.44 255.89) rotate(-73)"/>
      </g>
      <g>
        <path class="cls-5" d="M267.03,137.24c.55,2.31-1.61,5.46-4.17,6.9-3.28,1.83-6.07.29-8.48,2.73-.96.96-.61,1.32-1.64,2.73-2.63,3.69-7.22,4.66-8.51,4.91-1.8.39-6.9,1.44-10.34-1.38-1.93-1.57-1.64-2.99-3.28-6-3.56-6.61-8.35-6.52-9.22-9.89-1.64-6.52,12.91-20,22.83-17.28,6.23,1.7,6,8.54,16.18,12.97,3.08,1.35,6.1,2.02,6.65,4.3h-.03Z"/>
        <rect class="cls-2" x="241.83" y="127.84" width=".96" height="15.32" transform="translate(-32.63 97.04) rotate(-21.25)"/>
        <rect class="cls-2" x="238.1" y="132.82" width="1.16" height="12.65" transform="translate(-36.85 118.86) rotate(-26.03)"/>
        <rect class="cls-2" x="245.76" y="130.27" width="1.16" height="12.65" transform="translate(-29.17 77.99) rotate(-17)"/>
      </g>
      <g>
        <g>
          <g>
            <path class="cls-14" d="M174.87,94.37c-27.26-8.64-43.12,28.93-19.65,43.61,29.61,16.25,52.5-30.95,19.65-43.61Z"/>
            <path class="cls-14" d="M232.87,92.06c-22.61.45-26.91,32.46-8.83,43.16,35.58,12.04,46.34-45.02,8.83-43.16Z"/>
            <path class="cls-14" d="M191.6,115.92c7.1-.19,14.26-1.28,21.32.32-.26-.06-.55-.13-.8-.16"/>
          </g>
          <rect class="cls-9" x="142.75" y="109.75" width="34.74" height="3.15" transform="translate(-33.41 135.37) rotate(-41.89)"/>
          <rect class="cls-9" x="149.89" y="117.82" width="34.74" height="3.02" transform="translate(-36.93 142.18) rotate(-41.89)"/>
          <rect class="cls-9" x="216.07" y="108.51" width="34.74" height="3.15" transform="translate(-22.73 141.5) rotate(-32.24)"/>
          <rect class="cls-9" x="221.8" y="117.67" width="34.74" height="3.02" transform="translate(-26.7 145.97) rotate(-32.24)"/>
        </g>
        <path class="cls-7" d="M160.1,94.47c-30.7,12.36-11.08,61.3,20.61,40.56-20.65,5.43-35.8-8-29.8-30.38"/>
        <path class="cls-7" d="M221.02,95.11c-24.05,18.69,5.2,62.17,27.97,35.03-18.82,10.63-33.52-2.12-33.56-23.09"/>
      </g>
      <path class="cls-12" d="M157.82,143.89c0-.26.35-.45.58-.32-1.09,4.59-2.89,8.99-5.27,13.07-.22.39-.83.77-1.03.35"/>
      <g>
        <g>
          <path class="cls-16" d="M252.49,70.58c-.19.77-1.96,30.57-7.93,37.34s8.03-5.62,11.3-3.02c0,0,9.25-1.25,11.3,3.56s-8.86-35.19-9.18-36.22"/>
          <path class="cls-17" d="M251.01,88.88c2.09-5.01,4.14-10.05,6.23-15.06,4.66,18.5,6.45,16.95-1.32,7.26"/>
          <path class="cls-8" d="M252.77,84.13c1.57-3.79,3.11-7.55,4.69-11.34,3.5,13.9,4.85,12.75-1,5.46"/>
        </g>
        <g>
          <path class="cls-15" d="M244.62,94.63c-8.67,1.44-8.32-4.95-8.32-4.95l19.91-15.77s-3.92,19.43-11.59,20.71Z"/>
          <path class="cls-6" d="M247.77,89.24c-5.72.93-5.56-3.47-5.56-3.47l13.04-10.76s-2.44,13.42-7.51,14.26l.03-.03Z"/>
        </g>
        <g>
          <path class="cls-16" d="M248.7,52.66s-37.38-3.44-40.78,4.78c-3.02,11.78,27.13,44.79,40.17,25.24,4.14-4.62,6.71-10.05,8.06-9.47,2.34,1-7.48-20.55-7.48-20.55h.03Z"/>
          <path class="cls-17" d="M227.02,52.53c-31.47-.74-16.12,18.98-1.7,30.57-2.89-1.57-15.54-20.26-6.65-27.52"/>
          <path class="cls-17" d="M248.28,57.73c-5.88-3.66-9.54-1.61-13.65-.19,4.21,1.73,17.79-1.38,13.9,5.84-1.44-.26-9.44,1.86-10.37,6.9,4.95-1.96,7-.8,10.47-5.11,3.53,7.06-4.91,7.55-7.22,12.39,5.01-1.48,9.5-5.65,11.59-8.73"/>
          <path class="cls-8" d="M217.13,55.49c-14.96-.96-5.72,13.26-.51,18.53-1.25-.48-7.16-13.39-3.21-16.76"/>
          <path class="cls-8" d="M248.76,59.12c-3.72-2.83-5.81-1.12-8.22.16,3.21,1.09,10.79-1.03,8.73,4.43-1-.29-5.81,2.25-5.84,5.88,3.02-1.77,4.27-.96,6-4.43,2.6,4.95-2.38,6.45-3.63,10.28,3.11-1.48,5.36-4.82,6.45-7.39"/>
        </g>
        <g>
          <path class="cls-15" d="M287.2,77.32c6.49-3.89,2.47-8.45,2.47-8.45l-22.32-.39s14.13,12.3,19.88,8.86l-.03-.03Z"/>
          <path class="cls-8" d="M281.9,76.04c5.65-1.89,3.56-5.01,3.56-5.01l-16.73-1.96s8.19,8.64,13.2,6.97h-.03Z"/>
        </g>
        <g>
          <g>
            <path class="cls-16" d="M259.55,48.94s22.28-23.95,29.35-19.75c8.51,6.55,9.86,48.58-11.08,41.87-5.46-1.09-10.34-3.66-10.89-2.47-.93,2.09-7.39-19.65-7.39-19.65Z"/>
            <path class="cls-17" d="M264.94,63.71c5.46,4.27,9.31,2.63,13.52,1.64-3.98-2.18-17.85-.55-13.2-7.32,1.41.42,9.57-.83,11.05-5.75-5.11,1.44-7.06.06-10.95,3.98-2.76-7.42,5.68-7,8.51-11.56-5.14.93-10.05,4.59-12.46,7.45"/>
            <path class="cls-8" d="M265.27,62.97c4.5,3.53,7.71,2.15,11.17,1.35-3.28-1.8-14.74-.45-10.92-6.04,1.19.35,7.9-.71,9.15-4.75-4.24,1.19-5.81.03-9.06,3.28-2.28-6.13,4.69-5.78,7.03-9.57-4.24.77-8.32,3.82-10.28,6.17"/>
          </g>
          <path class="cls-17" d="M282.93,30.92c-5.65,3.31-28.96,19.46-20.74,22.54"/>
          <path class="cls-8" d="M276.79,35.06c-4.53,3.15-20.39,14.9-14.8,17.92"/>
        </g>
        <g>
          <g>
            <path class="cls-16" d="M259.29,69.36c.26.77,15.45,26.46,14.26,35.42s3.53-9.15,7.71-8.8c0,0,6.97-6.2,11.37-3.34s-27-24.28-27.81-24.92"/>
            <path class="cls-17" d="M275.09,77.77c-5.81-5.33-8.09-9.34-13.49-8.8.74,5.23,11.05,27.36,5.91,8.51-.96-2.76.8-2.38,2.44-.67"/>
          </g>
          <path class="cls-6" d="M271.91,74.53c-4.72-4.14-6.71-7.32-11.08-6.58.06,3.6,4.11,10.6,5.49,13.23,1.12.61-3.34-11.62,1.28-7.22"/>
        </g>
        <g>
          <path class="cls-16" d="M248.41,53.08c12.39-16.89,15.7,15.64,15.51,18.66-.77,1.19-8.03,1.89-8.03,1.89"/>
          <path class="cls-17" d="M254.7,49.9c-13.58.74-1.57,30.63,7.77,20.81-8.61-.26-11.88-15.28-7.77-20.81Z"/>
          <path class="cls-8" d="M251.84,58.44c-6.71,2.41,4.24,19.91,7.8,12.59-5.11.74-8.8-9.06-7.8-12.59Z"/>
        </g>
      </g>
      <path class="cls-12" d="M171.25,145.53c-.03,8.28-1.54,16.57-4.46,24.31"/>
      <path class="cls-12" d="M157.76,138.97c-.1,2.95-1.16,5.88-2.99,8.22"/>
    </g>
    <path class="cls-11" d="M196.13,141.67c5.81,4.01,11.75,3.82,17.66.16-3.31,6.87-14.61,6.9-17.66-.16h0Z"/>
  </g>
</svg>