<?xml version="1.0" encoding="UTF-8"?>
<svg xmlns="http://www.w3.org/2000/svg" version="1.1" viewBox="0 0 500 500">
  <defs>
    <style>
      .cls-1, .cls-2, .cls-3, .cls-4, .cls-5, .cls-6, .cls-7, .cls-8, .cls-9 {
        isolation: isolate;
      }

      .cls-1, .cls-4, .cls-7 {
        fill: #6c7996;
      }

      .cls-1, .cls-6 {
        opacity: .7;
      }

      .cls-10 {
        fill: #cacaca;
      }

      .cls-2 {
        opacity: .3;
      }

      .cls-2, .cls-6, .cls-8 {
        fill: #b2668c;
      }

      .cls-3 {
        fill: #c9a3b5;
        opacity: .1;
      }

      .cls-11 {
        fill: #606060;
      }

      .cls-12 {
        fill: none;
      }

      .cls-13 {
        fill: #f7f7f7;
      }

      .cls-13, .cls-14, .cls-15, .cls-16 {
        stroke: #606060;
        stroke-miterlimit: 10;
      }

      .cls-13, .cls-15 {
        stroke-width: .2px;
      }

      .cls-4 {
        opacity: .9;
      }

      .cls-5, .cls-16 {
        fill: #ffcbdf;
      }

      .cls-5, .cls-8, .cls-9 {
        opacity: .5;
      }

      .cls-14 {
        fill: #c4daf9;
      }

      .cls-14, .cls-16 {
        stroke-width: .5px;
      }

      .cls-7 {
        opacity: .6;
      }

      .cls-15, .cls-17 {
        fill: #f5afc9;
      }

      .cls-18 {
        fill: #e7e7e7;
      }

      .cls-9 {
        fill: #ede7f3;
      }
    </style>
  </defs>
  <!-- Generator: Adobe Illustrator 28.7.3, SVG Export Plug-In . SVG Version: 1.2.0 Build 164)  -->
  <g>
    <g id="Layer_1">
      <ellipse class="cls-3" cx="253.2" cy="250" rx="198.4" ry="208.7"/>
      <g>
        <g>
          <g>
            <g>
              <path class="cls-16" d="M192.5,388c-18.2,33.8,15.3,33.8,32.1,26.2,4.4-6.6,7.3-17.6,7.1-24.8"/>
              <path class="cls-17" d="M229.7,399.5c-1.1,9.6-13.8,9.2-23.4,8.1-10.7,2.4-22,4.4-16.9-9.6"/>
              <path class="cls-6" d="M230.8,394.8c-1.1,9.6-13.8,9.2-23.4,8.1-10.7,2.4-22,4.4-16.9-9.6"/>
            </g>
            <g>
              <path class="cls-14" d="M189.8,356.8s-5.3,39.8-3.7,42.5,50.8,0,52.5.5c1.6.5,9.7-32.5,9.7-32.5"/>
              <path class="cls-1" d="M188.8,369.9c2.1,10.4,14.1,19.9,21.1,12,0-9.8,7.9-12.6,16.9-7.9,10.5,5.9,11.3,1.6,16,8.7,1.3-2.6,3.3-9.9,2.9-14.5-.4-10-61.6-19.4-56-7.2"/>
              <path class="cls-4" d="M188.4,360.8c11.5,26.5,18.5,3.5,31.3,3.9,12.2.9,30.5,23.9,28.8-6.4.3-8.3-62.2-19.7-56.5-7.2"/>
            </g>
            <g>
              <path class="cls-16" d="M317.7,389c14.1,35.7-19.2,31.7-35,22.2-3.6-7-5.2-18.4-4.2-25.5"/>
              <path class="cls-17" d="M279.4,396c0,9.7,12.6,10.8,22.3,10.8,10.4,3.6,21.4,6.9,17.9-7.5"/>
              <path class="cls-6" d="M278.7,391.2c0,9.7,12.6,10.8,22.3,10.8,10.4,3.6,21.4,6.9,17.9-7.5"/>
            </g>
            <g>
              <path class="cls-14" d="M319.4,355.8s5,39.7,3.5,42.4-48.5,0-50.1.4-9.3-32.5-9.3-32.5"/>
              <path class="cls-1" d="M266.1,377.1c.4,15.7,28.4,15.4,37.7,5.8,2.1-3.1,5-10.2,9.3-13.3,3.4-2.4,6.4-4.5,6.5-8.3"/>
              <path class="cls-4" d="M264.4,378c2.3,15.4,30.1,11.7,38.2,1.1,1.6-3.3,3.7-10.7,7.6-14.3,3.1-2.7,5.7-5.2,5.4-9"/>
            </g>
            <g>
              <path class="cls-13" d="M324.2,110.1c-21-48.8-103.2-61.1-130.5,10-6.5,36-37.8,171.7-35.8,163-14.5,52.5-22.2,73.7-26.3,79.4-.3.4-2.6,2.1-2.2,3.7.3,1.1,1.8,1.8,2.3,1.5.5-.3-.3-1.6.2-3,.5-1.5,2.2-1.8,2.8-2.6,2.4-2.6,3.6-3.9,5.5-6.6,1.9-2.6,14.8-1.6,59.6,12.7,11.5-.6,15.4-17.6,45.7,5,40.1,29.7,69.4-14.2,84.6-14.1,15.2.2,26.8-2.2,17.5,12.5-9.2,14.7,25-9.9,25-9.9-16.2-83.8-32.4-167.6-48.6-251.4Z"/>
              <path class="cls-10" d="M213.7,361.3c-12-52.5-.5-98.3,13-142.9-4.1,28.8-69.6,140.4-23.7,146.7"/>
              <path class="cls-18" d="M212.2,364.2c-9.8-45.5-2-81.9,7.6-120.7-8.3,26.6-55.1,122.8-17.3,124.2"/>
              <path class="cls-10" d="M247.6,373.6c-6.3-13,16.2-51.8,20.2-97.6,3.9-28.7,2.1-49.7,4.5-49.8,14.8,36.1,7.2,122.8,26.1,135.8,23.4,20.6-39.6,26.2-50.7,11.5h0Z"/>
              <path class="cls-10" d="M352,360.7c-4.6-1.8-5.5-11.5-2.8-13.7,6.2-10-13.7-82.1-14.8-81.8,0,3.7,20.2,65,22.4,70.4,16.3,24.4,9.2,34.5-9.2,38.6-.2-.4,13.6-8.6,13.5-8.6-7.8,1.6-9.6.8-14.6,9.9"/>
              <path class="cls-10" d="M186.8,174.6c-9.7,16.9-22.2,83.5-22.1,79.4-11.2,42.2-6.2,59.7-7.9,96.5-8.2-4.4-19,3.4-21.3,8-.7-.3,1.9-7.8,17.7-42.8"/>
              <path class="cls-18" d="M251.2,373.7c-3.9-5.5-.6-10.8,6.1-36,4.7-18.5,13.4-66.3,18.5-100.5,10.7,40.4,4.3,111.2,20.3,124.8,20.8,19.8-34.5,26.8-44.9,11.7Z"/>
              <path class="cls-18" d="M353.6,359.8c-3.8-1.8-3.8-11-1.7-12.6,5.5-10.4-7.5-61.7-7.4-61.7,2.5,9.2,14,50.4,14,50.2,12.3,31.4,10.6,23.7-10.1,39.1"/>
              <path class="cls-18" d="M181.3,207.3c-13.6,39.8-24.1,94.9-23.6,145-19.7-2.9-28.4,19.3-3.7-28.6"/>
            </g>
          </g>
          <g>
            <path class="cls-5" d="M244.1,180.9c.4,2.3-1.9,5.4-4.6,6.6-3.4,1.6-6.1,0-8.6,2.2-1,.9-.7,1.3-1.8,2.6-2.8,3.5-7.5,4.2-8.8,4.4-1.8.3-7,1-10.2-2-1.8-1.7-1.5-3.1-2.9-6.2-3.2-6.8-7.9-7-8.6-10.4-1.3-6.6,14.1-19.2,23.8-15.9,6.1,2.1,5.5,8.9,15.4,13.9,3,1.5,6,2.4,6.4,4.7h0Z"/>
            <rect class="cls-2" x="208.4" y="182.5" width="15.3" height="1" transform="translate(-40.3 303.1) rotate(-65.4)"/>
            <rect class="cls-2" x="206.2" y="179.4" width="12.7" height="1.2" transform="translate(-48.6 276.7) rotate(-60.6)"/>
            <rect class="cls-2" x="213.8" y="181.5" width="12.7" height="1.2" transform="translate(-27.2 325) rotate(-69.6)"/>
          </g>
          <g>
            <path class="cls-5" d="M325.6,182.5c.4,2.3-1.9,5.4-4.6,6.6-3.4,1.6-6.1,0-8.6,2.2-1,.9-.7,1.3-1.8,2.6-2.8,3.5-7.5,4.2-8.8,4.4-1.8.3-7,1-10.2-2-1.8-1.7-1.5-3.1-2.9-6.2-3.2-6.8-7.9-7-8.6-10.4-1.3-6.6,14.1-19.2,23.8-15.9,6.1,2.1,5.5,8.9,15.4,13.9,3,1.5,6,2.4,6.4,4.7h0Z"/>
            <rect class="cls-2" x="300.6" y="171.6" width="1" height="15.3" transform="translate(-40.5 101) rotate(-17.9)"/>
            <rect class="cls-2" x="296.6" y="176.4" width="1.2" height="12.7" transform="translate(-47.4 128.5) rotate(-22.6)"/>
            <rect class="cls-2" x="304.4" y="174.3" width="1.2" height="12.7" transform="translate(-33.9 76.9) rotate(-13.6)"/>
          </g>
          <g>
            <g>
              <g>
                <path class="cls-14" d="M236.2,134.2c-26.7-10.2-44.8,26.3-22.2,42.4,28.6,18,54.2-27.8,22.2-42.4Z"/>
                <path class="cls-14" d="M294.2,135.3c-22.6-.9-28.8,30.8-11.4,42.6,34.8,14.1,48.9-42.2,11.4-42.6Z"/>
                <path class="cls-14" d="M251.6,156.7c7.1.2,14.3-.4,21.3,1.6-.3,0-.5-.2-.8-.2"/>
              </g>
              <rect class="cls-9" x="203.1" y="148.7" width="34.7" height="3.1" transform="translate(-45.6 169.9) rotate(-38.5)"/>
              <rect class="cls-9" x="209.7" y="157.2" width="34.7" height="3" transform="translate(-49.4 175.9) rotate(-38.5)"/>
              <rect class="cls-9" x="276.3" y="151.8" width="34.7" height="3.1" transform="translate(-37.5 160.8) rotate(-28.9)"/>
              <rect class="cls-9" x="281.5" y="161.3" width="34.7" height="3" transform="translate(-41.5 164.5) rotate(-28.9)"/>
            </g>
            <path class="cls-7" d="M221.4,133.5c-31.4,10.5-14.7,60.5,18.2,41.7-20.9,4.2-35.3-10.1-28-32.1"/>
            <path class="cls-7" d="M282.2,137.7c-25.1,17.2,1.5,62.4,25.9,36.6-19.4,9.5-33.3-4.1-32.1-25"/>
          </g>
          <path class="cls-12" d="M216.2,182.7c0-.3.4-.4.6-.3-1.4,4.5-3.4,8.8-6,12.7-.2.4-.9.7-1,.3"/>
          <g>
            <g>
              <path class="cls-16" d="M315,115.1c-.2.8-3.8,30.4-10.1,36.8-6.4,6.4,8.3-5.1,11.5-2.3,0,0,9.3-.7,11.1,4.2s-6.8-35.7-7-36.7"/>
              <path class="cls-17" d="M312.5,133.2c2.4-4.9,4.7-9.8,7.1-14.7,3.6,18.7,5.4,17.3-1.7,7.2"/>
              <path class="cls-8" d="M314.5,128.6c1.8-3.7,3.6-7.3,5.3-11,2.7,14.1,4.1,13-1.3,5.4"/>
            </g>
            <g>
              <path class="cls-15" d="M305.8,138.6c-8.7.9-8-5.4-8-5.4l20.8-14.6s-5.1,19.2-12.8,20Z"/>
              <path class="cls-6" d="M309.2,133.4c-5.8.6-5.3-3.8-5.3-3.8l13.6-10s-3.2,13.3-8.3,13.8h0Z"/>
            </g>
            <g>
              <path class="cls-16" d="M312.3,96.9s-37.1-5.6-41,2.4c-3.7,11.6,24.4,46.3,38.6,27.6,4.4-4.4,7.3-9.6,8.6-9,2.3,1.1-6.3-21-6.3-21h0Z"/>
              <path class="cls-17" d="M290.7,95.5c-31.4-2.6-17.2,18-3.5,30.4-2.8-1.7-14.3-21.1-5-27.9"/>
              <path class="cls-17" d="M311.6,102c-5.6-4-9.4-2.2-13.6-1,4.1,2,17.8-.3,13.5,6.7-1.4-.3-9.5,1.3-10.8,6.3,5.1-1.7,7-.4,10.8-4.5,3.1,7.3-5.3,7.2-7.9,11.9,5.1-1.2,9.8-5.1,12.1-8"/>
              <path class="cls-8" d="M280.6,97.9c-14.9-1.8-6.5,12.9-1.6,18.5-1.2-.6-6.4-13.8-2.2-16.9"/>
              <path class="cls-8" d="M312,103.4c-3.6-3-5.7-1.5-8.2-.3,3.1,1.3,10.8-.4,8.5,4.9-1-.3-5.9,1.9-6.2,5.5,3.1-1.6,4.3-.7,6.3-4.1,2.3,5.1-2.8,6.3-4.2,10,3.2-1.3,5.6-4.5,6.9-7"/>
            </g>
            <g>
              <path class="cls-15" d="M349.3,123.8c6.7-3.5,3-8.3,3-8.3l-22.3-1.7s13.4,13.1,19.3,10h0Z"/>
              <path class="cls-8" d="M344.1,122.2c5.8-1.6,3.9-4.8,3.9-4.8l-16.6-2.9s7.7,9.1,12.8,7.7h0Z"/>
            </g>
            <g>
              <g>
                <path class="cls-16" d="M323.4,93.9s23.7-22.6,30.5-18c8.1,7,7,49.1-13.5,41.1-5.4-1.4-10.1-4.3-10.7-3.1-1.1,2-6.2-20.1-6.2-20.1Z"/>
                <path class="cls-17" d="M327.9,108.9c5.2,4.6,9.1,3.2,13.4,2.4-3.8-2.4-17.8-1.6-12.7-8.1,1.4.5,9.6-.3,11.4-5.1-5.2,1.1-7.1-.4-11.2,3.3-2.3-7.6,6.1-6.7,9.2-11-5.2.6-10.3,4-12.9,6.7"/>
                <path class="cls-8" d="M328.3,108.2c4.3,3.8,7.6,2.6,11.1,2-3.2-2-14.7-1.3-10.5-6.7,1.2.4,7.9-.2,9.4-4.2-4.3.9-5.8-.3-9.2,2.7-1.9-6.3,5-5.5,7.6-9.1-4.3.5-8.5,3.3-10.6,5.5"/>
              </g>
              <path class="cls-17" d="M347.8,77.3c-5.8,3-30.1,17.7-22,21.3"/>
              <path class="cls-8" d="M341.4,81c-4.7,2.9-21.2,13.7-15.8,17"/>
            </g>
            <g>
              <g>
                <path class="cls-16" d="M321.9,114.2c.2.8,13.9,27.3,12.1,36.2s4.1-8.9,8.2-8.3c0,0,7.3-5.8,11.5-2.7s-25.5-25.8-26.3-26.5"/>
                <path class="cls-17" d="M337.2,123.6c-5.5-5.7-7.5-9.8-12.9-9.6.4,5.3,9.4,28,5.4,8.8-.8-2.8.9-2.3,2.5-.5"/>
              </g>
              <path class="cls-6" d="M334.2,120.1c-4.5-4.4-6.3-7.7-10.7-7.2-.1,3.6,3.5,10.8,4.7,13.5,1.1.7-2.6-11.8,1.7-7.1"/>
            </g>
            <g>
              <path class="cls-16" d="M312,97.3c13.4-16.1,14.8,16.5,14.4,19.5-.8,1.1-8.1,1.4-8.1,1.4"/>
              <path class="cls-17" d="M318.5,94.5c-13.6,0-3.4,30.5,6.5,21.2-8.6-.8-11-16-6.5-21.2Z"/>
              <path class="cls-8" d="M315.1,102.9c-6.8,2,3.1,20.1,7,13-5.1.4-8.2-9.6-7-13Z"/>
            </g>
          </g>
          <path class="cls-12" d="M229.5,185.1c-.5,8.3-2.5,16.4-5.9,24"/>
          <path class="cls-12" d="M216.5,177.7c-.3,2.9-1.5,5.8-3.5,8"/>
        </g>
        <path class="cls-11" d="M254.6,182.7c5.6,4.3,11.5,4.5,17.6,1.2-3.7,6.7-15,6-17.6-1.2h0Z"/>
      </g>
      <path class="cls-13" d="M198.2,375.5"/>
    </g>
  </g>
</svg>