<?xml version="1.0" encoding="UTF-8"?>
<svg id="Layer_1" xmlns="http://www.w3.org/2000/svg" viewBox="0 0 331.51 314.49">
  <defs>
    <style>
      .cls-1 {
        fill: none;
        stroke: #a6a6a6;
        stroke-miterlimit: 10;
        stroke-width: 2px;
      }
    </style>
  </defs>
  <path class="cls-1" d="M329.25,157.24c-56.76,27.97-68.7,53.31-47.88,109.72-59.45-19.76-86.13-8.41-115.61,45.45-29.48-53.86-56.16-65.19-115.61-45.45,20.82-56.42,8.86-81.74-47.88-109.72,56.76-27.97,68.7-53.3,47.88-109.72,59.45,19.76,86.13,8.41,115.61-45.45,29.48,53.86,56.16,65.19,115.61,45.45-20.82,56.42-8.86,81.74,47.88,109.72h0Z"/>
  <path class="cls-1" d="M283.84,157.24c-41,20.21-49.63,38.51-34.58,79.25-42.93-14.26-62.22-6.07-83.51,32.83-21.29-38.91-40.57-47.1-83.51-32.83,15.03-40.75,6.4-59.04-34.58-79.25,41-20.21,49.63-38.5,34.58-79.25,42.94,14.26,62.22,6.07,83.51-32.83,21.29,38.91,40.57,47.1,83.51,32.83-15.03,40.75-6.4,59.04,34.58,79.25Z"/>
  <path class="cls-1" d="M237.81,157.24c-25.01,12.34-30.28,23.5-21.11,48.36-26.2-8.71-37.97-3.7-50.96,20.03-13-23.73-24.76-28.74-50.96-20.03,9.18-24.86,3.9-36.03-21.1-48.36,25.01-12.34,30.28-23.5,21.1-48.36,26.2,8.71,37.97,3.7,50.96-20.03,13,23.73,24.76,28.74,50.96,20.03-9.17,24.86-3.9,36.03,21.11,48.36Z"/>
  <path class="cls-1" d="M201.22,157.24c-12.32,6.07-14.9,11.57-10.4,23.81-12.9-4.29-18.69-1.82-25.09,9.86-6.4-11.69-12.19-14.14-25.09-9.86,4.51-12.24,1.93-17.73-10.38-23.81,12.32-6.07,14.9-11.57,10.38-23.81,12.9,4.29,18.69,1.83,25.09-9.85,6.4,11.69,12.19,14.14,25.09,9.85-4.51,12.24-1.92,17.73,10.4,23.81Z"/>
  <path class="cls-1" d="M165.06,1.76v309.46"/>
  <path class="cls-1" d="M50.13,47.53l231.23,219.43"/>
  <path class="cls-1" d="M2.02,156.5h326.1"/>
  <path class="cls-1" d="M50.13,266.96L281.36,47.53"/>
</svg>